# Blender 3.6.4
# www.blender.org
o 球体
v 0.000000 0.831470 -0.555570
v 0.000000 0.555570 -0.831470
v 0.000000 0.195090 -0.980785
v 0.000000 0.000000 -1.000000
v 0.000000 -0.195090 -0.980785
v 0.000000 -0.555570 -0.831470
v 0.038060 0.980785 -0.191342
v 0.074658 0.923880 -0.375330
v 0.108386 0.831470 -0.544895
v 0.137950 0.707107 -0.693520
v 0.162212 0.555570 -0.815493
v 0.180240 0.382683 -0.906127
v 0.191342 0.195090 -0.961940
v 0.195090 0.000000 -0.980785
v 0.191342 -0.195090 -0.961940
v 0.180240 -0.382683 -0.906127
v 0.162212 -0.555570 -0.815493
v 0.137950 -0.707107 -0.693520
v 0.108386 -0.831470 -0.544895
v 0.074658 -0.923880 -0.375330
v 0.038060 -0.980785 -0.191342
v 0.074658 0.980785 -0.180240
v 0.146447 0.923880 -0.353553
v 0.212608 0.831470 -0.513280
v 0.270598 0.707107 -0.653281
v 0.318190 0.555570 -0.768178
v 0.353553 0.382683 -0.853553
v 0.375330 0.195090 -0.906127
v 0.382683 0.000000 -0.923879
v 0.375330 -0.195090 -0.906127
v 0.353553 -0.382683 -0.853553
v 0.318190 -0.555570 -0.768178
v 0.270598 -0.707107 -0.653281
v 0.212608 -0.831470 -0.513280
v 0.146447 -0.923880 -0.353553
v 0.074658 -0.980785 -0.180240
v 0.108386 0.980785 -0.162212
v 0.212608 0.923880 -0.318190
v 0.308658 0.831470 -0.461940
v 0.392847 0.707107 -0.587938
v 0.461940 0.555570 -0.691342
v 0.513280 0.382683 -0.768178
v 0.544895 0.195090 -0.815493
v 0.555570 0.000000 -0.831469
v 0.544895 -0.195090 -0.815493
v 0.513280 -0.382683 -0.768178
v 0.461940 -0.555570 -0.691342
v 0.392847 -0.707107 -0.587938
v 0.308658 -0.831470 -0.461940
v 0.212608 -0.923880 -0.318190
v 0.108386 -0.980785 -0.162212
v 0.137950 0.980785 -0.137950
v 0.270598 0.923880 -0.270598
v 0.392847 0.831470 -0.392847
v 0.500000 0.707107 -0.500000
v 0.587938 0.555570 -0.587938
v 0.653281 0.382683 -0.653281
v 0.693520 0.195090 -0.693520
v 0.707107 0.000000 -0.707107
v 0.693520 -0.195090 -0.693520
v 0.653281 -0.382683 -0.653281
v 0.587938 -0.555570 -0.587938
v 0.500000 -0.707107 -0.500000
v 0.392847 -0.831470 -0.392847
v 0.270598 -0.923880 -0.270598
v 0.137950 -0.980785 -0.137950
v 0.162212 0.980785 -0.108386
v 0.318190 0.923880 -0.212608
v 0.461940 0.831470 -0.308658
v 0.587938 0.707107 -0.392847
v 0.691342 0.555570 -0.461940
v 0.768178 0.382683 -0.513280
v 0.815493 0.195090 -0.544895
v 0.831470 0.000000 -0.555570
v 0.815493 -0.195090 -0.544895
v 0.768178 -0.382683 -0.513280
v 0.691342 -0.555570 -0.461940
v 0.587938 -0.707107 -0.392847
v 0.461940 -0.831470 -0.308658
v 0.318190 -0.923880 -0.212608
v 0.162212 -0.980785 -0.108386
v 0.000000 1.000000 0.000000
v 0.180240 0.980785 -0.074658
v 0.353553 0.923880 -0.146447
v 0.513280 0.831470 -0.212607
v 0.653281 0.707107 -0.270598
v 0.768178 0.555570 -0.318190
v 0.853553 0.382683 -0.353553
v 0.906127 0.195090 -0.375330
v 0.923879 0.000000 -0.382683
v 0.906127 -0.195090 -0.375330
v 0.853553 -0.382683 -0.353553
v 0.768178 -0.555570 -0.318190
v 0.653281 -0.707107 -0.270598
v 0.513280 -0.831470 -0.212607
v 0.353553 -0.923880 -0.146447
v 0.180240 -0.980785 -0.074658
v 0.191342 0.980785 -0.038060
v 0.375330 0.923880 -0.074658
v 0.544895 0.831470 -0.108386
v 0.693520 0.707107 -0.137950
v 0.815493 0.555570 -0.162212
v 0.906127 0.382683 -0.180240
v 0.961940 0.195090 -0.191342
v 0.980785 0.000000 -0.195090
v 0.961940 -0.195090 -0.191342
v 0.906127 -0.382683 -0.180240
v 0.815493 -0.555570 -0.162212
v 0.693520 -0.707107 -0.137950
v 0.544895 -0.831470 -0.108386
v 0.375330 -0.923880 -0.074658
v 0.191342 -0.980785 -0.038060
v 0.195090 0.980785 0.000000
v 0.382683 0.923880 0.000000
v 0.555570 0.831470 0.000000
v 0.707107 0.707107 -0.000000
v 0.831469 0.555570 0.000000
v 0.923879 0.382683 -0.000000
v 0.980785 0.195090 0.000000
v 1.000000 0.000000 0.000000
v 0.980785 -0.195090 0.000000
v 0.923879 -0.382683 -0.000000
v 0.831469 -0.555570 0.000000
v 0.707107 -0.707107 -0.000000
v 0.555570 -0.831470 0.000000
v 0.382683 -0.923880 0.000000
v 0.195090 -0.980785 0.000000
v 0.191342 0.980785 0.038060
v 0.375330 0.923880 0.074658
v 0.544895 0.831470 0.108386
v 0.693520 0.707107 0.137950
v 0.815493 0.555570 0.162212
v 0.906127 0.382683 0.180240
v 0.961940 0.195090 0.191342
v 0.980785 0.000000 0.195090
v 0.961940 -0.195090 0.191342
v 0.906127 -0.382683 0.180240
v 0.815493 -0.555570 0.162212
v 0.693520 -0.707107 0.137950
v 0.544895 -0.831470 0.108386
v 0.375330 -0.923880 0.074658
v 0.191342 -0.980785 0.038060
v 0.180240 0.980785 0.074658
v 0.353553 0.923880 0.146447
v 0.513280 0.831470 0.212608
v 0.653281 0.707107 0.270598
v 0.768178 0.555570 0.318190
v 0.853553 0.382683 0.353553
v 0.906127 0.195090 0.375330
v 0.923879 0.000000 0.382683
v 0.906127 -0.195090 0.375330
v 0.853553 -0.382683 0.353553
v 0.768178 -0.555570 0.318190
v 0.653281 -0.707107 0.270598
v 0.513280 -0.831470 0.212608
v 0.353553 -0.923880 0.146447
v 0.180240 -0.980785 0.074658
v 0.162212 0.980785 0.108386
v 0.318190 0.923880 0.212608
v 0.461940 0.831470 0.308658
v 0.587938 0.707107 0.392847
v 0.691341 0.555570 0.461940
v 0.768178 0.382683 0.513280
v 0.815493 0.195090 0.544895
v 0.831469 0.000000 0.555570
v 0.815493 -0.195090 0.544895
v 0.768178 -0.382683 0.513280
v 0.691341 -0.555570 0.461940
v 0.587938 -0.707107 0.392847
v 0.461940 -0.831470 0.308658
v 0.318190 -0.923880 0.212608
v 0.162212 -0.980785 0.108386
v 0.137950 0.980785 0.137950
v 0.270598 0.923880 0.270598
v 0.392847 0.831470 0.392847
v 0.500000 0.707107 0.500000
v 0.587938 0.555570 0.587938
v 0.653281 0.382683 0.653281
v 0.693520 0.195090 0.693520
v 0.707106 0.000000 0.707107
v 0.693520 -0.195090 0.693520
v 0.653281 -0.382683 0.653281
v 0.587938 -0.555570 0.587938
v 0.500000 -0.707107 0.500000
v 0.392847 -0.831470 0.392847
v 0.270598 -0.923880 0.270598
v 0.137950 -0.980785 0.137950
v 0.108386 0.980785 0.162212
v 0.212607 0.923880 0.318190
v 0.308658 0.831470 0.461940
v 0.392847 0.707107 0.587938
v 0.461940 0.555570 0.691342
v 0.513280 0.382683 0.768178
v 0.544895 0.195090 0.815493
v 0.555570 0.000000 0.831469
v 0.544895 -0.195090 0.815493
v 0.513280 -0.382683 0.768178
v 0.461940 -0.555570 0.691342
v 0.392847 -0.707107 0.587938
v 0.308658 -0.831470 0.461940
v 0.212607 -0.923880 0.318190
v 0.108386 -0.980785 0.162212
v 0.074658 0.980785 0.180240
v 0.146447 0.923880 0.353553
v 0.212607 0.831470 0.513280
v 0.270598 0.707107 0.653281
v 0.318189 0.555570 0.768178
v 0.353553 0.382683 0.853553
v 0.375330 0.195090 0.906127
v 0.382683 0.000000 0.923879
v 0.375330 -0.195090 0.906127
v 0.353553 -0.382683 0.853553
v 0.318189 -0.555570 0.768178
v 0.270598 -0.707107 0.653281
v 0.212607 -0.831470 0.513280
v 0.146447 -0.923880 0.353553
v 0.074658 -0.980785 0.180240
v 0.038060 0.980785 0.191342
v 0.074658 0.923880 0.375330
v 0.108386 0.831470 0.544895
v 0.137950 0.707107 0.693520
v 0.162212 0.555570 0.815493
v 0.180240 0.382683 0.906127
v 0.191342 0.195090 0.961939
v 0.195090 0.000000 0.980785
v 0.191342 -0.195090 0.961939
v 0.180240 -0.382683 0.906127
v 0.162212 -0.555570 0.815493
v 0.137950 -0.707107 0.693520
v 0.108386 -0.831470 0.544895
v 0.074658 -0.923880 0.375330
v 0.038060 -0.980785 0.191342
v -0.000000 0.980785 0.195090
v -0.000000 0.923880 0.382683
v -0.000000 0.831470 0.555570
v -0.000000 0.707107 0.707107
v -0.000000 0.555570 0.831469
v 0.000000 0.382683 0.923879
v -0.000000 0.195090 0.980785
v -0.000000 0.000000 0.999999
v -0.000000 -0.195090 0.980785
v 0.000000 -0.382683 0.923879
v -0.000000 -0.555570 0.831469
v -0.000000 -0.707107 0.707107
v -0.000000 -0.831470 0.555570
v -0.000000 -0.923880 0.382683
v -0.000000 -0.980785 0.195090
v -0.038060 0.980785 0.191342
v -0.074658 0.923880 0.375330
v -0.108386 0.831470 0.544895
v -0.137950 0.707107 0.693520
v -0.162212 0.555570 0.815493
v -0.180240 0.382683 0.906127
v -0.191342 0.195090 0.961939
v -0.195091 0.000000 0.980785
v -0.191342 -0.195090 0.961939
v -0.180240 -0.382683 0.906127
v -0.162212 -0.555570 0.815493
v -0.137950 -0.707107 0.693520
v -0.108386 -0.831470 0.544895
v -0.074658 -0.923880 0.375330
v -0.038060 -0.980785 0.191342
v -0.074658 0.980785 0.180240
v -0.146447 0.923880 0.353553
v -0.212608 0.831470 0.513280
v -0.270598 0.707107 0.653281
v -0.318190 0.555570 0.768177
v -0.353553 0.382683 0.853553
v -0.375330 0.195090 0.906127
v -0.382683 0.000000 0.923879
v -0.375330 -0.195090 0.906127
v -0.353553 -0.382683 0.853553
v -0.318190 -0.555570 0.768177
v -0.270598 -0.707107 0.653281
v -0.212608 -0.831470 0.513280
v -0.146447 -0.923880 0.353553
v -0.074658 -0.980785 0.180240
v -0.108386 0.980785 0.162212
v -0.212608 0.923880 0.318190
v -0.308658 0.831470 0.461939
v -0.392847 0.707107 0.587938
v -0.461940 0.555570 0.691341
v -0.513280 0.382683 0.768178
v -0.544895 0.195090 0.815493
v -0.555570 0.000000 0.831469
v -0.544895 -0.195090 0.815493
v -0.513280 -0.382683 0.768178
v -0.461940 -0.555570 0.691341
v -0.392847 -0.707107 0.587938
v -0.308658 -0.831470 0.461939
v -0.212608 -0.923880 0.318190
v -0.108386 -0.980785 0.162212
v -0.137950 0.980785 0.137950
v -0.270598 0.923880 0.270598
v -0.392847 0.831470 0.392847
v -0.500000 0.707107 0.500000
v -0.587938 0.555570 0.587937
v -0.653281 0.382683 0.653281
v -0.693520 0.195090 0.693520
v -0.707106 0.000000 0.707106
v -0.693520 -0.195090 0.693520
v -0.653281 -0.382683 0.653281
v -0.587938 -0.555570 0.587937
v -0.500000 -0.707107 0.500000
v -0.392847 -0.831470 0.392847
v -0.270598 -0.923880 0.270598
v -0.137950 -0.980785 0.137950
v 0.000000 -1.000000 0.000000
v -0.162212 0.980785 0.108386
v -0.318190 0.923880 0.212607
v -0.461940 0.831470 0.308658
v -0.587938 0.707107 0.392847
v -0.691341 0.555570 0.461939
v -0.768177 0.382683 0.513280
v -0.815493 0.195090 0.544895
v -0.831469 0.000000 0.555569
v -0.815493 -0.195090 0.544895
v -0.768177 -0.382683 0.513280
v -0.691341 -0.555570 0.461939
v -0.587938 -0.707107 0.392847
v -0.461940 -0.831470 0.308658
v -0.318190 -0.923880 0.212607
v -0.162212 -0.980785 0.108386
v -0.180240 0.980785 0.074658
v -0.353553 0.923880 0.146447
v -0.513280 0.831470 0.212607
v -0.653281 0.707107 0.270598
v -0.768177 0.555570 0.318189
v -0.853553 0.382683 0.353553
v -0.906127 0.195090 0.375330
v -0.923879 0.000000 0.382683
v -0.906127 -0.195090 0.375330
v -0.853553 -0.382683 0.353553
v -0.768177 -0.555570 0.318189
v -0.653281 -0.707107 0.270598
v -0.513280 -0.831470 0.212607
v -0.353553 -0.923880 0.146447
v -0.180240 -0.980785 0.074658
v -0.191342 0.980785 0.038060
v -0.375330 0.923880 0.074658
v -0.544895 0.831470 0.108386
v -0.693520 0.707107 0.137950
v -0.815493 0.555570 0.162211
v -0.906127 0.382683 0.180240
v -0.961939 0.195090 0.191341
v -0.980784 0.000000 0.195090
v -0.961939 -0.195090 0.191341
v -0.906127 -0.382683 0.180240
v -0.815493 -0.555570 0.162211
v -0.693520 -0.707107 0.137950
v -0.544895 -0.831470 0.108386
v -0.375330 -0.923880 0.074658
v -0.191342 -0.980785 0.038060
v -0.195090 0.980785 -0.000000
v -0.382683 0.923880 -0.000000
v -0.555570 0.831470 -0.000000
v -0.707107 0.707107 -0.000000
v -0.831469 0.555570 -0.000000
v -0.923879 0.382683 -0.000000
v -0.980785 0.195090 -0.000000
v -0.999999 0.000000 -0.000000
v -0.980785 -0.195090 -0.000000
v -0.923879 -0.382683 -0.000000
v -0.831469 -0.555570 -0.000000
v -0.707107 -0.707107 -0.000000
v -0.555570 -0.831470 -0.000000
v -0.382683 -0.923880 -0.000000
v -0.195090 -0.980785 -0.000000
v -0.191342 0.980785 -0.038060
v -0.375330 0.923880 -0.074658
v -0.544895 0.831470 -0.108386
v -0.693520 0.707107 -0.137950
v -0.815493 0.555570 -0.162212
v -0.906127 0.382683 -0.180240
v -0.961939 0.195090 -0.191342
v -0.980784 0.000000 -0.195091
v -0.961939 -0.195090 -0.191342
v -0.906127 -0.382683 -0.180240
v -0.815493 -0.555570 -0.162212
v -0.693520 -0.707107 -0.137950
v -0.544895 -0.831470 -0.108386
v -0.375330 -0.923880 -0.074658
v -0.191342 -0.980785 -0.038060
v -0.180240 0.980785 -0.074658
v -0.353553 0.923880 -0.146447
v -0.513279 0.831470 -0.212607
v -0.653281 0.707107 -0.270598
v -0.768177 0.555570 -0.318190
v -0.853553 0.382683 -0.353553
v -0.906127 0.195090 -0.375330
v -0.923878 0.000000 -0.382683
v -0.906127 -0.195090 -0.375330
v -0.853553 -0.382683 -0.353553
v -0.768177 -0.555570 -0.318190
v -0.653281 -0.707107 -0.270598
v -0.513279 -0.831470 -0.212607
v -0.353553 -0.923880 -0.146447
v -0.180240 -0.980785 -0.074658
v -0.162212 0.980785 -0.108386
v -0.318189 0.923880 -0.212607
v -0.461939 0.831470 -0.308658
v -0.587938 0.707107 -0.392847
v -0.691341 0.555570 -0.461940
v -0.768177 0.382683 -0.513280
v -0.815493 0.195090 -0.544895
v -0.831468 0.000000 -0.555570
v -0.815493 -0.195090 -0.544895
v -0.768177 -0.382683 -0.513280
v -0.691341 -0.555570 -0.461940
v -0.587938 -0.707107 -0.392847
v -0.461939 -0.831470 -0.308658
v -0.318189 -0.923880 -0.212607
v -0.162212 -0.980785 -0.108386
v -0.137950 0.980785 -0.137950
v -0.270598 0.923880 -0.270598
v -0.392847 0.831470 -0.392847
v -0.500000 0.707107 -0.500000
v -0.587937 0.555570 -0.587938
v -0.653281 0.382683 -0.653281
v -0.693519 0.195090 -0.693520
v -0.707106 0.000000 -0.707106
v -0.693519 -0.195090 -0.693520
v -0.653281 -0.382683 -0.653281
v -0.587937 -0.555570 -0.587938
v -0.500000 -0.707107 -0.500000
v -0.392847 -0.831470 -0.392847
v -0.270598 -0.923880 -0.270598
v -0.137950 -0.980785 -0.137950
v -0.108386 0.980785 -0.162212
v -0.212607 0.923880 -0.318190
v -0.308658 0.831470 -0.461939
v -0.392847 0.707107 -0.587938
v -0.461939 0.555570 -0.691341
v -0.513280 0.382683 -0.768177
v -0.544895 0.195090 -0.815493
v -0.555569 0.000000 -0.831469
v -0.544895 -0.195090 -0.815493
v -0.513280 -0.382683 -0.768177
v -0.461939 -0.555570 -0.691341
v -0.392847 -0.707107 -0.587938
v -0.308658 -0.831470 -0.461939
v -0.212607 -0.923880 -0.318190
v -0.108386 -0.980785 -0.162212
v -0.074658 0.980785 -0.180240
v -0.146446 0.923880 -0.353553
v -0.212607 0.831470 -0.513279
v -0.270598 0.707107 -0.653281
v -0.318189 0.555570 -0.768177
v -0.353553 0.382683 -0.853553
v -0.375330 0.195090 -0.906127
v -0.382683 0.000000 -0.923879
v -0.375330 -0.195090 -0.906127
v -0.353553 -0.382683 -0.853553
v -0.318189 -0.555570 -0.768177
v -0.270598 -0.707107 -0.653281
v -0.212607 -0.831470 -0.513279
v -0.146446 -0.923880 -0.353553
v -0.074658 -0.980785 -0.180240
v -0.038060 0.980785 -0.191342
v -0.074658 0.923880 -0.375330
v -0.108386 0.831470 -0.544895
v -0.137950 0.707107 -0.693520
v -0.162211 0.555570 -0.815493
v -0.180240 0.382683 -0.906127
v -0.191341 0.195090 -0.961939
v -0.195090 0.000000 -0.980784
v -0.191341 -0.195090 -0.961939
v -0.180240 -0.382683 -0.906127
v -0.162211 -0.555570 -0.815493
v -0.137950 -0.707107 -0.693520
v -0.108386 -0.831470 -0.544895
v -0.074658 -0.923880 -0.375330
v -0.038060 -0.980785 -0.191342
v 0.000000 0.980785 -0.195090
v 0.000000 0.923880 -0.382683
v 0.000000 0.707107 -0.707107
v 0.000000 0.382683 -0.923879
v 0.000000 -0.382683 -0.923879
v 0.000000 -0.707107 -0.707107
v 0.000000 -0.831470 -0.555570
v 0.000000 -0.923880 -0.382683
v 0.000000 -0.980785 -0.195090
vn -0.0000 -0.8286 -0.5598
vn -0.0000 -0.7041 -0.7101
vn 0.1385 -0.7041 -0.6965
vn 0.1092 -0.8286 -0.5490
vn -0.0000 0.3805 -0.9248
vn -0.0000 0.5528 -0.8333
vn 0.1626 0.5528 -0.8173
vn 0.1804 0.3805 -0.9070
vn -0.0000 -0.9217 -0.3879
vn 0.0757 -0.9217 -0.3804
vn -0.0000 0.1939 -0.9810
vn 0.1914 0.1939 -0.9622
vn -0.0000 -0.9796 -0.2010
vn 0.0392 -0.9796 -0.1971
vn -0.0000 -0.0000 -1.0000
vn 0.1951 -0.0000 -0.9808
vn -0.0000 0.9796 -0.2010
vn -0.0000 1.0000 -0.0000
vn 0.0392 0.9796 -0.1971
vn -0.0000 -1.0000 -0.0000
vn -0.0000 -0.1939 -0.9810
vn 0.1914 -0.1939 -0.9622
vn -0.0000 0.9217 -0.3879
vn 0.0757 0.9217 -0.3804
vn -0.0000 -0.3805 -0.9248
vn 0.1804 -0.3805 -0.9070
vn -0.0000 0.8286 -0.5598
vn 0.1092 0.8286 -0.5490
vn -0.0000 -0.5528 -0.8333
vn 0.1626 -0.5528 -0.8173
vn -0.0000 0.7041 -0.7101
vn 0.1385 0.7041 -0.6965
vn 0.3189 -0.5528 -0.7699
vn 0.2718 -0.7041 -0.6561
vn 0.2718 0.7041 -0.6561
vn 0.3189 0.5528 -0.7699
vn 0.2142 -0.8286 -0.5172
vn 0.3539 0.3805 -0.8544
vn 0.1484 -0.9217 -0.3584
vn 0.3754 0.1939 -0.9063
vn 0.0769 -0.9796 -0.1857
vn 0.3827 -0.0000 -0.9239
vn 0.0769 0.9796 -0.1857
vn 0.3754 -0.1939 -0.9063
vn 0.1484 0.9217 -0.3584
vn 0.3539 -0.3805 -0.8544
vn 0.2142 0.8286 -0.5172
vn 0.1117 0.9796 -0.1671
vn 0.1117 -0.9796 -0.1671
vn 0.5556 -0.0000 -0.8315
vn 0.5450 -0.1939 -0.8157
vn 0.2155 0.9217 -0.3225
vn 0.5138 -0.3805 -0.7689
vn 0.3110 0.8286 -0.4654
vn 0.4630 -0.5528 -0.6929
vn 0.3945 0.7041 -0.5905
vn 0.3945 -0.7041 -0.5905
vn 0.4630 0.5528 -0.6929
vn 0.3110 -0.8286 -0.4654
vn 0.5138 0.3805 -0.7689
vn 0.2155 -0.9217 -0.3225
vn 0.5450 0.1939 -0.8157
vn 0.5021 0.7041 -0.5021
vn 0.5893 0.5528 -0.5893
vn 0.5021 -0.7041 -0.5021
vn 0.3958 -0.8286 -0.3958
vn 0.6539 0.3805 -0.6539
vn 0.2743 -0.9217 -0.2743
vn 0.6937 0.1939 -0.6937
vn 0.1421 -0.9796 -0.1421
vn 0.7071 -0.0000 -0.7071
vn 0.1421 0.9796 -0.1421
vn 0.6937 -0.1939 -0.6937
vn 0.2743 0.9217 -0.2743
vn 0.6539 -0.3805 -0.6539
vn 0.3958 0.8286 -0.3958
vn 0.5893 -0.5528 -0.5893
vn 0.8315 -0.0000 -0.5556
vn 0.8157 -0.1939 -0.5450
vn 0.1671 0.9796 -0.1117
vn 0.3225 0.9217 -0.2155
vn 0.7689 -0.3805 -0.5138
vn 0.4654 0.8286 -0.3110
vn 0.6929 -0.5528 -0.4630
vn 0.5905 0.7041 -0.3945
vn 0.5905 -0.7041 -0.3945
vn 0.6929 0.5528 -0.4630
vn 0.4654 -0.8286 -0.3110
vn 0.7689 0.3805 -0.5138
vn 0.3225 -0.9217 -0.2155
vn 0.8157 0.1939 -0.5450
vn 0.1671 -0.9796 -0.1117
vn 0.6561 -0.7041 -0.2718
vn 0.5172 -0.8286 -0.2142
vn 0.7699 0.5528 -0.3189
vn 0.8544 0.3805 -0.3539
vn 0.3584 -0.9217 -0.1484
vn 0.9063 0.1939 -0.3754
vn 0.1857 -0.9796 -0.0769
vn 0.9239 -0.0000 -0.3827
vn 0.1857 0.9796 -0.0769
vn 0.9063 -0.1939 -0.3754
vn 0.3584 0.9217 -0.1484
vn 0.8544 -0.3805 -0.3539
vn 0.5172 0.8286 -0.2142
vn 0.7699 -0.5528 -0.3189
vn 0.6561 0.7041 -0.2718
vn 0.1971 0.9796 -0.0392
vn 0.3804 0.9217 -0.0757
vn 0.9622 -0.1939 -0.1914
vn 0.9070 -0.3805 -0.1804
vn 0.5490 0.8286 -0.1092
vn 0.8173 -0.5528 -0.1626
vn 0.6965 0.7041 -0.1385
vn 0.6965 -0.7041 -0.1385
vn 0.8173 0.5528 -0.1626
vn 0.5490 -0.8286 -0.1092
vn 0.9070 0.3805 -0.1804
vn 0.3804 -0.9217 -0.0757
vn 0.9622 0.1939 -0.1914
vn 0.1971 -0.9796 -0.0392
vn 0.9808 -0.0000 -0.1951
vn 0.8333 0.5528 -0.0000
vn 0.9248 0.3805 -0.0000
vn 0.5598 -0.8286 -0.0000
vn 0.3879 -0.9217 -0.0000
vn 0.9810 0.1939 -0.0000
vn 0.2010 -0.9796 -0.0000
vn 1.0000 -0.0000 -0.0000
vn 0.2010 0.9796 -0.0000
vn 0.9810 -0.1939 -0.0000
vn 0.3879 0.9217 -0.0000
vn 0.9248 -0.3805 -0.0000
vn 0.5598 0.8286 -0.0000
vn 0.8333 -0.5528 -0.0000
vn 0.7101 0.7041 -0.0000
vn 0.7101 -0.7041 -0.0000
vn 0.9622 -0.1939 0.1914
vn 0.9070 -0.3805 0.1804
vn 0.3804 0.9217 0.0757
vn 0.5490 0.8286 0.1092
vn 0.8173 -0.5528 0.1626
vn 0.6965 0.7041 0.1385
vn 0.6965 -0.7041 0.1385
vn 0.8173 0.5528 0.1626
vn 0.5490 -0.8286 0.1092
vn 0.9070 0.3805 0.1804
vn 0.3804 -0.9217 0.0757
vn 0.9622 0.1939 0.1914
vn 0.1971 -0.9796 0.0392
vn 0.9808 -0.0000 0.1951
vn 0.1971 0.9796 0.0392
vn 0.5172 -0.8286 0.2142
vn 0.3584 -0.9217 0.1484
vn 0.8544 0.3805 0.3539
vn 0.9063 0.1939 0.3754
vn 0.1857 -0.9796 0.0769
vn 0.9239 -0.0000 0.3827
vn 0.1857 0.9796 0.0769
vn 0.9063 -0.1939 0.3754
vn 0.3584 0.9217 0.1484
vn 0.8544 -0.3805 0.3539
vn 0.5172 0.8286 0.2142
vn 0.7699 -0.5528 0.3189
vn 0.6561 0.7041 0.2718
vn 0.6561 -0.7041 0.2718
vn 0.7699 0.5528 0.3189
vn 0.7689 -0.3805 0.5138
vn 0.6929 -0.5528 0.4630
vn 0.4654 0.8286 0.3110
vn 0.5905 0.7041 0.3945
vn 0.5905 -0.7041 0.3945
vn 0.6929 0.5528 0.4630
vn 0.4654 -0.8286 0.3110
vn 0.7689 0.3805 0.5138
vn 0.3225 -0.9217 0.2155
vn 0.8157 0.1939 0.5450
vn 0.1671 -0.9796 0.1117
vn 0.8315 -0.0000 0.5556
vn 0.1671 0.9796 0.1117
vn 0.8157 -0.1939 0.5450
vn 0.3225 0.9217 0.2155
vn 0.2743 -0.9217 0.2743
vn 0.1421 -0.9796 0.1421
vn 0.6937 0.1939 0.6937
vn 0.7071 -0.0000 0.7071
vn 0.1421 0.9796 0.1421
vn 0.6937 -0.1939 0.6937
vn 0.2743 0.9217 0.2743
vn 0.6539 -0.3805 0.6539
vn 0.3958 0.8286 0.3958
vn 0.5893 -0.5528 0.5893
vn 0.5021 0.7041 0.5021
vn 0.5021 -0.7041 0.5021
vn 0.5893 0.5528 0.5893
vn 0.3958 -0.8286 0.3958
vn 0.6539 0.3805 0.6539
vn 0.3110 0.8286 0.4654
vn 0.3945 0.7041 0.5905
vn 0.4630 -0.5528 0.6929
vn 0.3945 -0.7041 0.5905
vn 0.4630 0.5528 0.6929
vn 0.3110 -0.8286 0.4654
vn 0.5138 0.3805 0.7689
vn 0.2155 -0.9217 0.3225
vn 0.5450 0.1939 0.8157
vn 0.1117 -0.9796 0.1671
vn 0.5556 -0.0000 0.8315
vn 0.1117 0.9796 0.1671
vn 0.5450 -0.1939 0.8157
vn 0.2155 0.9217 0.3225
vn 0.5138 -0.3805 0.7689
vn 0.3754 0.1939 0.9063
vn 0.3827 -0.0000 0.9239
vn 0.0769 0.9796 0.1857
vn 0.0769 -0.9796 0.1857
vn 0.3754 -0.1939 0.9063
vn 0.1484 0.9217 0.3584
vn 0.3539 -0.3805 0.8544
vn 0.2142 0.8286 0.5172
vn 0.3189 -0.5528 0.7699
vn 0.2718 0.7041 0.6561
vn 0.2718 -0.7041 0.6561
vn 0.3189 0.5528 0.7699
vn 0.2142 -0.8286 0.5172
vn 0.3539 0.3805 0.8544
vn 0.1484 -0.9217 0.3584
vn 0.1626 -0.5528 0.8173
vn 0.1385 -0.7041 0.6965
vn 0.1385 0.7041 0.6965
vn 0.1626 0.5528 0.8173
vn 0.1092 -0.8286 0.5490
vn 0.1804 0.3805 0.9070
vn 0.0757 -0.9217 0.3804
vn 0.1914 0.1939 0.9622
vn 0.0392 -0.9796 0.1971
vn 0.1951 -0.0000 0.9808
vn 0.0392 0.9796 0.1971
vn 0.1914 -0.1939 0.9622
vn 0.0757 0.9217 0.3804
vn 0.1804 -0.3805 0.9070
vn 0.1092 0.8286 0.5490
vn -0.0000 0.9796 0.2010
vn -0.0000 -0.9796 0.2010
vn -0.0000 -0.0000 1.0000
vn -0.0000 -0.1939 0.9810
vn -0.0000 0.9217 0.3879
vn -0.0000 -0.3805 0.9248
vn -0.0000 0.8286 0.5598
vn -0.0000 -0.5528 0.8333
vn -0.0000 0.7041 0.7101
vn -0.0000 -0.7041 0.7101
vn -0.0000 0.5528 0.8333
vn -0.0000 -0.8286 0.5598
vn -0.0000 0.3805 0.9248
vn -0.0000 -0.9217 0.3879
vn -0.0000 0.1939 0.9810
vn -0.1385 0.7041 0.6965
vn -0.1626 0.5528 0.8173
vn -0.1385 -0.7041 0.6965
vn -0.1092 -0.8286 0.5490
vn -0.1804 0.3805 0.9070
vn -0.0757 -0.9217 0.3804
vn -0.1914 0.1939 0.9622
vn -0.0392 -0.9796 0.1971
vn -0.1951 -0.0000 0.9808
vn -0.0392 0.9796 0.1971
vn -0.1914 -0.1939 0.9622
vn -0.0757 0.9217 0.3804
vn -0.1804 -0.3805 0.9070
vn -0.1092 0.8286 0.5490
vn -0.1626 -0.5528 0.8173
vn -0.3827 -0.0000 0.9239
vn -0.3754 -0.1939 0.9063
vn -0.0769 0.9796 0.1857
vn -0.1484 0.9217 0.3584
vn -0.3539 -0.3805 0.8544
vn -0.2142 0.8286 0.5172
vn -0.3189 -0.5528 0.7699
vn -0.2718 0.7041 0.6561
vn -0.2718 -0.7041 0.6561
vn -0.3189 0.5528 0.7699
vn -0.2142 -0.8286 0.5172
vn -0.3539 0.3805 0.8544
vn -0.1484 -0.9217 0.3584
vn -0.3754 0.1939 0.9063
vn -0.0769 -0.9796 0.1857
vn -0.3945 -0.7041 0.5905
vn -0.3110 -0.8286 0.4654
vn -0.4630 0.5528 0.6929
vn -0.5138 0.3805 0.7689
vn -0.2155 -0.9217 0.3225
vn -0.5450 0.1939 0.8157
vn -0.1117 -0.9796 0.1671
vn -0.5556 -0.0000 0.8315
vn -0.1117 0.9796 0.1671
vn -0.5450 -0.1939 0.8157
vn -0.2155 0.9217 0.3225
vn -0.5138 -0.3805 0.7689
vn -0.3110 0.8286 0.4654
vn -0.4630 -0.5528 0.6929
vn -0.3945 0.7041 0.5905
vn -0.6937 -0.1939 0.6937
vn -0.6539 -0.3805 0.6539
vn -0.2743 0.9217 0.2743
vn -0.3958 0.8286 0.3958
vn -0.5893 -0.5528 0.5893
vn -0.5021 0.7041 0.5021
vn -0.5021 -0.7041 0.5021
vn -0.5893 0.5528 0.5893
vn -0.3958 -0.8286 0.3958
vn -0.6539 0.3805 0.6539
vn -0.2743 -0.9217 0.2743
vn -0.6937 0.1939 0.6937
vn -0.1421 -0.9796 0.1421
vn -0.7071 -0.0000 0.7071
vn -0.1421 0.9796 0.1421
vn -0.4654 -0.8286 0.3110
vn -0.3225 -0.9217 0.2155
vn -0.7689 0.3805 0.5138
vn -0.8157 0.1939 0.5450
vn -0.1671 -0.9796 0.1117
vn -0.8315 -0.0000 0.5556
vn -0.1671 0.9796 0.1117
vn -0.8157 -0.1939 0.5450
vn -0.3225 0.9217 0.2155
vn -0.7689 -0.3805 0.5138
vn -0.4654 0.8286 0.3110
vn -0.6929 -0.5528 0.4630
vn -0.5905 0.7041 0.3945
vn -0.5905 -0.7041 0.3945
vn -0.6929 0.5528 0.4630
vn -0.3584 0.9217 0.1484
vn -0.5172 0.8286 0.2142
vn -0.8544 -0.3805 0.3539
vn -0.7699 -0.5528 0.3189
vn -0.6561 0.7041 0.2718
vn -0.6561 -0.7041 0.2718
vn -0.7699 0.5528 0.3189
vn -0.5172 -0.8286 0.2142
vn -0.8544 0.3805 0.3539
vn -0.3584 -0.9217 0.1484
vn -0.9063 0.1939 0.3754
vn -0.1857 -0.9796 0.0769
vn -0.9239 -0.0000 0.3827
vn -0.1857 0.9796 0.0769
vn -0.9063 -0.1939 0.3754
vn -0.9070 0.3805 0.1804
vn -0.9622 0.1939 0.1914
vn -0.3804 -0.9217 0.0757
vn -0.1971 -0.9796 0.0392
vn -0.9808 -0.0000 0.1951
vn -0.1971 0.9796 0.0392
vn -0.9622 -0.1939 0.1914
vn -0.3804 0.9217 0.0757
vn -0.9070 -0.3805 0.1804
vn -0.5490 0.8286 0.1092
vn -0.8173 -0.5528 0.1626
vn -0.6965 0.7041 0.1385
vn -0.6965 -0.7041 0.1385
vn -0.8173 0.5528 0.1626
vn -0.5490 -0.8286 0.1092
vn -0.9248 -0.3805 -0.0000
vn -0.8333 -0.5528 -0.0000
vn -0.5598 0.8286 -0.0000
vn -0.7101 0.7041 -0.0000
vn -0.7101 -0.7041 -0.0000
vn -0.8333 0.5528 -0.0000
vn -0.5598 -0.8286 -0.0000
vn -0.9248 0.3805 -0.0000
vn -0.3879 -0.9217 -0.0000
vn -0.9810 0.1939 -0.0000
vn -0.2010 -0.9796 -0.0000
vn -1.0000 -0.0000 -0.0000
vn -0.2010 0.9796 -0.0000
vn -0.9810 -0.1939 -0.0000
vn -0.3879 0.9217 -0.0000
vn -0.3804 -0.9217 -0.0757
vn -0.1971 -0.9796 -0.0392
vn -0.9622 0.1939 -0.1914
vn -0.9808 -0.0000 -0.1951
vn -0.1971 0.9796 -0.0392
vn -0.9622 -0.1939 -0.1914
vn -0.3804 0.9217 -0.0757
vn -0.9070 -0.3805 -0.1804
vn -0.5490 0.8286 -0.1092
vn -0.8173 -0.5528 -0.1626
vn -0.6965 0.7041 -0.1385
vn -0.6965 -0.7041 -0.1385
vn -0.8173 0.5528 -0.1626
vn -0.5490 -0.8286 -0.1092
vn -0.9070 0.3805 -0.1804
vn -0.5172 0.8286 -0.2142
vn -0.6561 0.7041 -0.2718
vn -0.7699 -0.5528 -0.3189
vn -0.6561 -0.7041 -0.2718
vn -0.7699 0.5528 -0.3189
vn -0.5172 -0.8286 -0.2142
vn -0.8544 0.3805 -0.3539
vn -0.3584 -0.9217 -0.1484
vn -0.9063 0.1939 -0.3754
vn -0.1857 -0.9796 -0.0769
vn -0.9239 -0.0000 -0.3827
vn -0.1857 0.9796 -0.0769
vn -0.9063 -0.1939 -0.3754
vn -0.3584 0.9217 -0.1484
vn -0.8544 -0.3805 -0.3539
vn -0.8157 0.1939 -0.5450
vn -0.8315 -0.0000 -0.5556
vn -0.1671 0.9796 -0.1117
vn -0.1671 -0.9796 -0.1117
vn -0.8157 -0.1939 -0.5450
vn -0.3225 0.9217 -0.2155
vn -0.7689 -0.3805 -0.5138
vn -0.4654 0.8286 -0.3110
vn -0.6929 -0.5528 -0.4630
vn -0.5905 0.7041 -0.3945
vn -0.5905 -0.7041 -0.3945
vn -0.6929 0.5528 -0.4630
vn -0.4654 -0.8286 -0.3110
vn -0.7689 0.3805 -0.5138
vn -0.3225 -0.9217 -0.2155
vn -0.5893 -0.5528 -0.5893
vn -0.5021 -0.7041 -0.5021
vn -0.5021 0.7041 -0.5021
vn -0.5893 0.5528 -0.5893
vn -0.3958 -0.8286 -0.3958
vn -0.6539 0.3805 -0.6539
vn -0.2743 -0.9217 -0.2743
vn -0.6937 0.1939 -0.6937
vn -0.1421 -0.9796 -0.1421
vn -0.7071 -0.0000 -0.7071
vn -0.1421 0.9796 -0.1421
vn -0.6937 -0.1939 -0.6937
vn -0.2743 0.9217 -0.2743
vn -0.6539 -0.3805 -0.6539
vn -0.3958 0.8286 -0.3958
vn -0.1117 -0.9796 -0.1671
vn -0.5556 -0.0000 -0.8315
vn -0.5450 -0.1939 -0.8157
vn -0.1117 0.9796 -0.1671
vn -0.2155 0.9217 -0.3225
vn -0.5138 -0.3805 -0.7689
vn -0.3110 0.8286 -0.4654
vn -0.4630 -0.5528 -0.6929
vn -0.3945 0.7041 -0.5905
vn -0.3945 -0.7041 -0.5905
vn -0.4630 0.5528 -0.6929
vn -0.3110 -0.8286 -0.4654
vn -0.5138 0.3805 -0.7689
vn -0.2155 -0.9217 -0.3225
vn -0.5450 0.1939 -0.8157
vn -0.2718 -0.7041 -0.6561
vn -0.2142 -0.8286 -0.5172
vn -0.3189 0.5528 -0.7699
vn -0.3539 0.3805 -0.8544
vn -0.1484 -0.9217 -0.3584
vn -0.3754 0.1939 -0.9063
vn -0.0769 -0.9796 -0.1857
vn -0.3827 -0.0000 -0.9239
vn -0.0769 0.9796 -0.1857
vn -0.3754 -0.1939 -0.9063
vn -0.1484 0.9217 -0.3584
vn -0.3539 -0.3805 -0.8544
vn -0.2142 0.8286 -0.5172
vn -0.3189 -0.5528 -0.7699
vn -0.2718 0.7041 -0.6561
vn -0.0392 0.9796 -0.1971
vn -0.0757 0.9217 -0.3804
vn -0.1914 -0.1939 -0.9622
vn -0.1804 -0.3805 -0.9070
vn -0.1092 0.8286 -0.5490
vn -0.1626 -0.5528 -0.8173
vn -0.1385 0.7041 -0.6965
vn -0.1385 -0.7041 -0.6965
vn -0.1626 0.5528 -0.8173
vn -0.1092 -0.8286 -0.5490
vn -0.1804 0.3805 -0.9070
vn -0.0757 -0.9217 -0.3804
vn -0.1914 0.1939 -0.9622
vn -0.0392 -0.9796 -0.1971
vn -0.1951 -0.0000 -0.9808
vt 0.750000 0.187500
vt 0.750000 0.250000
vt 0.718750 0.250000
vt 0.718750 0.187500
vt 0.750000 0.625000
vt 0.750000 0.687500
vt 0.718750 0.687500
vt 0.718750 0.625000
vt 0.750000 0.125000
vt 0.718750 0.125000
vt 0.750000 0.562500
vt 0.718750 0.562500
vt 0.750000 0.062500
vt 0.718750 0.062500
vt 0.750000 0.500000
vt 0.718750 0.500000
vt 0.750000 0.937500
vt 0.734375 1.000000
vt 0.718750 0.937500
vt 0.734375 0.000000
vt 0.750000 0.437500
vt 0.718750 0.437500
vt 0.750000 0.875000
vt 0.718750 0.875000
vt 0.750000 0.375000
vt 0.718750 0.375000
vt 0.750000 0.812500
vt 0.718750 0.812500
vt 0.750000 0.312500
vt 0.718750 0.312500
vt 0.750000 0.750000
vt 0.718750 0.750000
vt 0.687500 0.312500
vt 0.687500 0.250000
vt 0.687500 0.750000
vt 0.687500 0.687500
vt 0.687500 0.187500
vt 0.687500 0.625000
vt 0.687500 0.125000
vt 0.687500 0.562500
vt 0.687500 0.062500
vt 0.687500 0.500000
vt 0.703125 1.000000
vt 0.687500 0.937500
vt 0.703125 0.000000
vt 0.687500 0.437500
vt 0.687500 0.875000
vt 0.687500 0.375000
vt 0.687500 0.812500
vt 0.671875 1.000000
vt 0.656250 0.937500
vt 0.671875 0.000000
vt 0.656250 0.062500
vt 0.656250 0.500000
vt 0.656250 0.437500
vt 0.656250 0.875000
vt 0.656250 0.375000
vt 0.656250 0.812500
vt 0.656250 0.312500
vt 0.656250 0.750000
vt 0.656250 0.250000
vt 0.656250 0.687500
vt 0.656250 0.187500
vt 0.656250 0.625000
vt 0.656250 0.125000
vt 0.656250 0.562500
vt 0.625000 0.750000
vt 0.625000 0.687500
vt 0.625000 0.250000
vt 0.625000 0.187500
vt 0.625000 0.625000
vt 0.625000 0.125000
vt 0.625000 0.562500
vt 0.625000 0.062500
vt 0.625000 0.500000
vt 0.640625 1.000000
vt 0.625000 0.937500
vt 0.640625 0.000000
vt 0.625000 0.437500
vt 0.625000 0.875000
vt 0.625000 0.375000
vt 0.625000 0.812500
vt 0.625000 0.312500
vt 0.593750 0.500000
vt 0.593750 0.437500
vt 0.593750 0.937500
vt 0.593750 0.875000
vt 0.593750 0.375000
vt 0.593750 0.812500
vt 0.593750 0.312500
vt 0.593750 0.750000
vt 0.593750 0.250000
vt 0.593750 0.687500
vt 0.593750 0.187500
vt 0.593750 0.625000
vt 0.593750 0.125000
vt 0.593750 0.562500
vt 0.593750 0.062500
vt 0.609375 1.000000
vt 0.609375 0.000000
vt 0.562500 0.250000
vt 0.562500 0.187500
vt 0.562500 0.687500
vt 0.562500 0.625000
vt 0.562500 0.125000
vt 0.562500 0.562500
vt 0.562500 0.062500
vt 0.562500 0.500000
vt 0.578125 1.000000
vt 0.562500 0.937500
vt 0.578125 0.000000
vt 0.562500 0.437500
vt 0.562500 0.875000
vt 0.562500 0.375000
vt 0.562500 0.812500
vt 0.562500 0.312500
vt 0.562500 0.750000
vt 0.531250 0.937500
vt 0.531250 0.875000
vt 0.531250 0.437500
vt 0.531250 0.375000
vt 0.531250 0.812500
vt 0.531250 0.312500
vt 0.531250 0.750000
vt 0.531250 0.250000
vt 0.531250 0.687500
vt 0.531250 0.187500
vt 0.531250 0.625000
vt 0.531250 0.125000
vt 0.531250 0.562500
vt 0.531250 0.062500
vt 0.531250 0.500000
vt 0.546875 1.000000
vt 0.546875 0.000000
vt 0.500000 0.687500
vt 0.500000 0.625000
vt 0.500000 0.187500
vt 0.500000 0.125000
vt 0.500000 0.562500
vt 0.500000 0.062500
vt 0.500000 0.500000
vt 0.515625 1.000000
vt 0.500000 0.937500
vt 0.515625 0.000000
vt 0.500000 0.437500
vt 0.500000 0.875000
vt 0.500000 0.375000
vt 0.500000 0.812500
vt 0.500000 0.312500
vt 0.500000 0.750000
vt 0.500000 0.250000
vt 0.468750 0.437500
vt 0.468750 0.375000
vt 0.468750 0.875000
vt 0.468750 0.812500
vt 0.468750 0.312500
vt 0.468750 0.750000
vt 0.468750 0.250000
vt 0.468750 0.687500
vt 0.468750 0.187500
vt 0.468750 0.625000
vt 0.468750 0.125000
vt 0.468750 0.562500
vt 0.468750 0.062500
vt 0.468750 0.500000
vt 0.484375 1.000000
vt 0.468750 0.937500
vt 0.484375 0.000000
vt 0.437500 0.187500
vt 0.437500 0.125000
vt 0.437500 0.625000
vt 0.437500 0.562500
vt 0.437500 0.062500
vt 0.437500 0.500000
vt 0.453125 1.000000
vt 0.437500 0.937500
vt 0.453125 0.000000
vt 0.437500 0.437500
vt 0.437500 0.875000
vt 0.437500 0.375000
vt 0.437500 0.812500
vt 0.437500 0.312500
vt 0.437500 0.750000
vt 0.437500 0.250000
vt 0.437500 0.687500
vt 0.406250 0.375000
vt 0.406250 0.312500
vt 0.406250 0.812500
vt 0.406250 0.750000
vt 0.406250 0.250000
vt 0.406250 0.687500
vt 0.406250 0.187500
vt 0.406250 0.625000
vt 0.406250 0.125000
vt 0.406250 0.562500
vt 0.406250 0.062500
vt 0.406250 0.500000
vt 0.421875 1.000000
vt 0.406250 0.937500
vt 0.421875 0.000000
vt 0.406250 0.437500
vt 0.406250 0.875000
vt 0.375000 0.125000
vt 0.375000 0.062500
vt 0.375000 0.562500
vt 0.375000 0.500000
vt 0.390625 1.000000
vt 0.375000 0.937500
vt 0.390625 0.000000
vt 0.375000 0.437500
vt 0.375000 0.875000
vt 0.375000 0.375000
vt 0.375000 0.812500
vt 0.375000 0.312500
vt 0.375000 0.750000
vt 0.375000 0.250000
vt 0.375000 0.687500
vt 0.375000 0.187500
vt 0.375000 0.625000
vt 0.343750 0.812500
vt 0.343750 0.750000
vt 0.343750 0.312500
vt 0.343750 0.250000
vt 0.343750 0.687500
vt 0.343750 0.187500
vt 0.343750 0.625000
vt 0.343750 0.125000
vt 0.343750 0.562500
vt 0.343750 0.062500
vt 0.343750 0.500000
vt 0.359375 1.000000
vt 0.343750 0.937500
vt 0.359375 0.000000
vt 0.343750 0.437500
vt 0.343750 0.875000
vt 0.343750 0.375000
vt 0.312500 0.562500
vt 0.312500 0.500000
vt 0.328125 1.000000
vt 0.312500 0.937500
vt 0.328125 0.000000
vt 0.312500 0.062500
vt 0.312500 0.437500
vt 0.312500 0.875000
vt 0.312500 0.375000
vt 0.312500 0.812500
vt 0.312500 0.312500
vt 0.312500 0.750000
vt 0.312500 0.250000
vt 0.312500 0.687500
vt 0.312500 0.187500
vt 0.312500 0.625000
vt 0.312500 0.125000
vt 0.281250 0.312500
vt 0.281250 0.250000
vt 0.281250 0.750000
vt 0.281250 0.687500
vt 0.281250 0.187500
vt 0.281250 0.625000
vt 0.281250 0.125000
vt 0.281250 0.562500
vt 0.281250 0.062500
vt 0.281250 0.500000
vt 0.296875 1.000000
vt 0.281250 0.937500
vt 0.296875 0.000000
vt 0.281250 0.437500
vt 0.281250 0.875000
vt 0.281250 0.375000
vt 0.281250 0.812500
vt 0.265625 1.000000
vt 0.250000 0.937500
vt 0.265625 0.000000
vt 0.250000 0.062500
vt 0.250000 0.500000
vt 0.250000 0.437500
vt 0.250000 0.875000
vt 0.250000 0.375000
vt 0.250000 0.812500
vt 0.250000 0.312500
vt 0.250000 0.750000
vt 0.250000 0.250000
vt 0.250000 0.687500
vt 0.250000 0.187500
vt 0.250000 0.625000
vt 0.250000 0.125000
vt 0.250000 0.562500
vt 0.218750 0.750000
vt 0.218750 0.687500
vt 0.218750 0.250000
vt 0.218750 0.187500
vt 0.218750 0.625000
vt 0.218750 0.125000
vt 0.218750 0.562500
vt 0.218750 0.062500
vt 0.218750 0.500000
vt 0.234375 1.000000
vt 0.218750 0.937500
vt 0.234375 0.000000
vt 0.218750 0.437500
vt 0.218750 0.875000
vt 0.218750 0.375000
vt 0.218750 0.812500
vt 0.218750 0.312500
vt 0.187500 0.500000
vt 0.187500 0.437500
vt 0.187500 0.937500
vt 0.187500 0.875000
vt 0.187500 0.375000
vt 0.187500 0.812500
vt 0.187500 0.312500
vt 0.187500 0.750000
vt 0.187500 0.250000
vt 0.187500 0.687500
vt 0.187500 0.187500
vt 0.187500 0.625000
vt 0.187500 0.125000
vt 0.187500 0.562500
vt 0.187500 0.062500
vt 0.203125 1.000000
vt 0.203125 0.000000
vt 0.156250 0.250000
vt 0.156250 0.187500
vt 0.156250 0.687500
vt 0.156250 0.625000
vt 0.156250 0.125000
vt 0.156250 0.562500
vt 0.156250 0.062500
vt 0.156250 0.500000
vt 0.171875 1.000000
vt 0.156250 0.937500
vt 0.171875 0.000000
vt 0.156250 0.437500
vt 0.156250 0.875000
vt 0.156250 0.375000
vt 0.156250 0.812500
vt 0.156250 0.312500
vt 0.156250 0.750000
vt 0.125000 0.437500
vt 0.125000 0.375000
vt 0.125000 0.875000
vt 0.125000 0.812500
vt 0.125000 0.312500
vt 0.125000 0.750000
vt 0.125000 0.250000
vt 0.125000 0.687500
vt 0.125000 0.187500
vt 0.125000 0.625000
vt 0.125000 0.125000
vt 0.125000 0.562500
vt 0.125000 0.062500
vt 0.125000 0.500000
vt 0.140625 1.000000
vt 0.125000 0.937500
vt 0.140625 0.000000
vt 0.093750 0.187500
vt 0.093750 0.125000
vt 0.093750 0.625000
vt 0.093750 0.562500
vt 0.093750 0.062500
vt 0.093750 0.500000
vt 0.109375 1.000000
vt 0.093750 0.937500
vt 0.109375 0.000000
vt 0.093750 0.437500
vt 0.093750 0.875000
vt 0.093750 0.375000
vt 0.093750 0.812500
vt 0.093750 0.312500
vt 0.093750 0.750000
vt 0.093750 0.250000
vt 0.093750 0.687500
vt 0.062500 0.875000
vt 0.062500 0.812500
vt 0.062500 0.375000
vt 0.062500 0.312500
vt 0.062500 0.750000
vt 0.062500 0.250000
vt 0.062500 0.687500
vt 0.062500 0.187500
vt 0.062500 0.625000
vt 0.062500 0.125000
vt 0.062500 0.562500
vt 0.062500 0.062500
vt 0.062500 0.500000
vt 0.078125 1.000000
vt 0.062500 0.937500
vt 0.078125 0.000000
vt 0.062500 0.437500
vt 0.031250 0.625000
vt 0.031250 0.562500
vt 0.031250 0.125000
vt 0.031250 0.062500
vt 0.031250 0.500000
vt 0.046875 1.000000
vt 0.031250 0.937500
vt 0.046875 0.000000
vt 0.031250 0.437500
vt 0.031250 0.875000
vt 0.031250 0.375000
vt 0.031250 0.812500
vt 0.031250 0.312500
vt 0.031250 0.750000
vt 0.031250 0.250000
vt 0.031250 0.687500
vt 0.031250 0.187500
vt 0.000000 0.375000
vt 0.000000 0.312500
vt 0.000000 0.812500
vt 0.000000 0.750000
vt 0.000000 0.250000
vt 0.000000 0.687500
vt 0.000000 0.187500
vt 0.000000 0.625000
vt 0.000000 0.125000
vt 0.000000 0.562500
vt 0.000000 0.062500
vt 0.000000 0.500000
vt 0.015625 1.000000
vt 0.000000 0.937500
vt 0.015625 0.000000
vt 0.000000 0.437500
vt 0.000000 0.875000
vt 1.000000 0.062500
vt 1.000000 0.125000
vt 0.968750 0.125000
vt 0.968750 0.062500
vt 1.000000 0.500000
vt 1.000000 0.562500
vt 0.968750 0.562500
vt 0.968750 0.500000
vt 1.000000 0.937500
vt 0.984375 1.000000
vt 0.968750 0.937500
vt 0.984375 0.000000
vt 1.000000 0.437500
vt 0.968750 0.437500
vt 1.000000 0.875000
vt 0.968750 0.875000
vt 1.000000 0.375000
vt 0.968750 0.375000
vt 1.000000 0.812500
vt 0.968750 0.812500
vt 1.000000 0.312500
vt 0.968750 0.312500
vt 1.000000 0.750000
vt 0.968750 0.750000
vt 1.000000 0.250000
vt 0.968750 0.250000
vt 1.000000 0.687500
vt 0.968750 0.687500
vt 1.000000 0.187500
vt 0.968750 0.187500
vt 1.000000 0.625000
vt 0.968750 0.625000
vt 0.937500 0.812500
vt 0.937500 0.750000
vt 0.937500 0.312500
vt 0.937500 0.250000
vt 0.937500 0.687500
vt 0.937500 0.187500
vt 0.937500 0.625000
vt 0.937500 0.125000
vt 0.937500 0.562500
vt 0.937500 0.062500
vt 0.937500 0.500000
vt 0.953125 1.000000
vt 0.937500 0.937500
vt 0.953125 0.000000
vt 0.937500 0.437500
vt 0.937500 0.875000
vt 0.937500 0.375000
vt 0.906250 0.562500
vt 0.906250 0.500000
vt 0.921875 1.000000
vt 0.906250 0.937500
vt 0.921875 0.000000
vt 0.906250 0.062500
vt 0.906250 0.437500
vt 0.906250 0.875000
vt 0.906250 0.375000
vt 0.906250 0.812500
vt 0.906250 0.312500
vt 0.906250 0.750000
vt 0.906250 0.250000
vt 0.906250 0.687500
vt 0.906250 0.187500
vt 0.906250 0.625000
vt 0.906250 0.125000
vt 0.875000 0.312500
vt 0.875000 0.250000
vt 0.875000 0.750000
vt 0.875000 0.687500
vt 0.875000 0.187500
vt 0.875000 0.625000
vt 0.875000 0.125000
vt 0.875000 0.562500
vt 0.875000 0.062500
vt 0.875000 0.500000
vt 0.890625 1.000000
vt 0.875000 0.937500
vt 0.890625 0.000000
vt 0.875000 0.437500
vt 0.875000 0.875000
vt 0.875000 0.375000
vt 0.875000 0.812500
vt 0.859375 0.000000
vt 0.843750 0.062500
vt 0.843750 0.500000
vt 0.843750 0.437500
vt 0.843750 0.937500
vt 0.843750 0.875000
vt 0.843750 0.375000
vt 0.843750 0.812500
vt 0.843750 0.312500
vt 0.843750 0.750000
vt 0.843750 0.250000
vt 0.843750 0.687500
vt 0.843750 0.187500
vt 0.843750 0.625000
vt 0.843750 0.125000
vt 0.843750 0.562500
vt 0.859375 1.000000
vt 0.812500 0.250000
vt 0.812500 0.187500
vt 0.812500 0.687500
vt 0.812500 0.625000
vt 0.812500 0.125000
vt 0.812500 0.562500
vt 0.812500 0.062500
vt 0.812500 0.500000
vt 0.828125 1.000000
vt 0.812500 0.937500
vt 0.828125 0.000000
vt 0.812500 0.437500
vt 0.812500 0.875000
vt 0.812500 0.375000
vt 0.812500 0.812500
vt 0.812500 0.312500
vt 0.812500 0.750000
vt 0.781250 0.937500
vt 0.781250 0.875000
vt 0.781250 0.437500
vt 0.781250 0.375000
vt 0.781250 0.812500
vt 0.781250 0.312500
vt 0.781250 0.750000
vt 0.781250 0.250000
vt 0.781250 0.687500
vt 0.781250 0.187500
vt 0.781250 0.625000
vt 0.781250 0.125000
vt 0.781250 0.562500
vt 0.781250 0.062500
vt 0.781250 0.500000
vt 0.796875 1.000000
vt 0.796875 0.000000
vt 0.765625 1.000000
vt 0.765625 0.000000
s 1
f 480/1/1 479/2/2 18/3/3 19/4/4
f 477/5/5 2/6/6 11/7/7 12/8/8
f 481/9/9 480/1/1 19/4/4 20/10/10
f 3/11/11 477/5/5 12/8/8 13/12/12
f 482/13/13 481/9/9 20/10/10 21/14/14
f 4/15/15 3/11/11 13/12/12 14/16/16
f 474/17/17 82/18/18 7/19/19
f 308/20/20 482/13/13 21/14/14
f 5/21/21 4/15/15 14/16/16 15/22/22
f 475/23/23 474/17/17 7/19/19 8/24/24
f 478/25/25 5/21/21 15/22/22 16/26/26
f 1/27/27 475/23/23 8/24/24 9/28/28
f 6/29/29 478/25/25 16/26/26 17/30/30
f 476/31/31 1/27/27 9/28/28 10/32/32
f 479/2/2 6/29/29 17/30/30 18/3/3
f 2/6/6 476/31/31 10/32/32 11/7/7
f 18/3/3 17/30/30 32/33/33 33/34/34
f 11/7/7 10/32/32 25/35/35 26/36/36
f 19/4/4 18/3/3 33/34/34 34/37/37
f 12/8/8 11/7/7 26/36/36 27/38/38
f 20/10/10 19/4/4 34/37/37 35/39/39
f 13/12/12 12/8/8 27/38/38 28/40/40
f 21/14/14 20/10/10 35/39/39 36/41/41
f 14/16/16 13/12/12 28/40/40 29/42/42
f 7/19/19 82/43/18 22/44/43
f 308/45/20 21/14/14 36/41/41
f 15/22/22 14/16/16 29/42/42 30/46/44
f 8/24/24 7/19/19 22/44/43 23/47/45
f 16/26/26 15/22/22 30/46/44 31/48/46
f 9/28/28 8/24/24 23/47/45 24/49/47
f 17/30/30 16/26/26 31/48/46 32/33/33
f 10/32/32 9/28/28 24/49/47 25/35/35
f 22/44/43 82/50/18 37/51/48
f 308/52/20 36/41/41 51/53/49
f 30/46/44 29/42/42 44/54/50 45/55/51
f 23/47/45 22/44/43 37/51/48 38/56/52
f 31/48/46 30/46/44 45/55/51 46/57/53
f 24/49/47 23/47/45 38/56/52 39/58/54
f 32/33/33 31/48/46 46/57/53 47/59/55
f 25/35/35 24/49/47 39/58/54 40/60/56
f 33/34/34 32/33/33 47/59/55 48/61/57
f 26/36/36 25/35/35 40/60/56 41/62/58
f 34/37/37 33/34/34 48/61/57 49/63/59
f 27/38/38 26/36/36 41/62/58 42/64/60
f 35/39/39 34/37/37 49/63/59 50/65/61
f 28/40/40 27/38/38 42/64/60 43/66/62
f 36/41/41 35/39/39 50/65/61 51/53/49
f 29/42/42 28/40/40 43/66/62 44/54/50
f 41/62/58 40/60/56 55/67/63 56/68/64
f 49/63/59 48/61/57 63/69/65 64/70/66
f 42/64/60 41/62/58 56/68/64 57/71/67
f 50/65/61 49/63/59 64/70/66 65/72/68
f 43/66/62 42/64/60 57/71/67 58/73/69
f 51/53/49 50/65/61 65/72/68 66/74/70
f 44/54/50 43/66/62 58/73/69 59/75/71
f 37/51/48 82/76/18 52/77/72
f 308/78/20 51/53/49 66/74/70
f 45/55/51 44/54/50 59/75/71 60/79/73
f 38/56/52 37/51/48 52/77/72 53/80/74
f 46/57/53 45/55/51 60/79/73 61/81/75
f 39/58/54 38/56/52 53/80/74 54/82/76
f 47/59/55 46/57/53 61/81/75 62/83/77
f 40/60/56 39/58/54 54/82/76 55/67/63
f 48/61/57 47/59/55 62/83/77 63/69/65
f 60/79/73 59/75/71 74/84/78 75/85/79
f 53/80/74 52/77/72 67/86/80 68/87/81
f 61/81/75 60/79/73 75/85/79 76/88/82
f 54/82/76 53/80/74 68/87/81 69/89/83
f 62/83/77 61/81/75 76/88/82 77/90/84
f 55/67/63 54/82/76 69/89/83 70/91/85
f 63/69/65 62/83/77 77/90/84 78/92/86
f 56/68/64 55/67/63 70/91/85 71/93/87
f 64/70/66 63/69/65 78/92/86 79/94/88
f 57/71/67 56/68/64 71/93/87 72/95/89
f 65/72/68 64/70/66 79/94/88 80/96/90
f 58/73/69 57/71/67 72/95/89 73/97/91
f 66/74/70 65/72/68 80/96/90 81/98/92
f 59/75/71 58/73/69 73/97/91 74/84/78
f 52/77/72 82/99/18 67/86/80
f 308/100/20 66/74/70 81/98/92
f 79/94/88 78/92/86 94/101/93 95/102/94
f 72/95/89 71/93/87 87/103/95 88/104/96
f 80/96/90 79/94/88 95/102/94 96/105/97
f 73/97/91 72/95/89 88/104/96 89/106/98
f 81/98/92 80/96/90 96/105/97 97/107/99
f 74/84/78 73/97/91 89/106/98 90/108/100
f 67/86/80 82/109/18 83/110/101
f 308/111/20 81/98/92 97/107/99
f 75/85/79 74/84/78 90/108/100 91/112/102
f 68/87/81 67/86/80 83/110/101 84/113/103
f 76/88/82 75/85/79 91/112/102 92/114/104
f 69/89/83 68/87/81 84/113/103 85/115/105
f 77/90/84 76/88/82 92/114/104 93/116/106
f 70/91/85 69/89/83 85/115/105 86/117/107
f 78/92/86 77/90/84 93/116/106 94/101/93
f 71/93/87 70/91/85 86/117/107 87/103/95
f 84/113/103 83/110/101 98/118/108 99/119/109
f 92/114/104 91/112/102 106/120/110 107/121/111
f 85/115/105 84/113/103 99/119/109 100/122/112
f 93/116/106 92/114/104 107/121/111 108/123/113
f 86/117/107 85/115/105 100/122/112 101/124/114
f 94/101/93 93/116/106 108/123/113 109/125/115
f 87/103/95 86/117/107 101/124/114 102/126/116
f 95/102/94 94/101/93 109/125/115 110/127/117
f 88/104/96 87/103/95 102/126/116 103/128/118
f 96/105/97 95/102/94 110/127/117 111/129/119
f 89/106/98 88/104/96 103/128/118 104/130/120
f 97/107/99 96/105/97 111/129/119 112/131/121
f 90/108/100 89/106/98 104/130/120 105/132/122
f 83/110/101 82/133/18 98/118/108
f 308/134/20 97/107/99 112/131/121
f 91/112/102 90/108/100 105/132/122 106/120/110
f 103/128/118 102/126/116 117/135/123 118/136/124
f 111/129/119 110/127/117 125/137/125 126/138/126
f 104/130/120 103/128/118 118/136/124 119/139/127
f 112/131/121 111/129/119 126/138/126 127/140/128
f 105/132/122 104/130/120 119/139/127 120/141/129
f 98/118/108 82/142/18 113/143/130
f 308/144/20 112/131/121 127/140/128
f 106/120/110 105/132/122 120/141/129 121/145/131
f 99/119/109 98/118/108 113/143/130 114/146/132
f 107/121/111 106/120/110 121/145/131 122/147/133
f 100/122/112 99/119/109 114/146/132 115/148/134
f 108/123/113 107/121/111 122/147/133 123/149/135
f 101/124/114 100/122/112 115/148/134 116/150/136
f 109/125/115 108/123/113 123/149/135 124/151/137
f 102/126/116 101/124/114 116/150/136 117/135/123
f 110/127/117 109/125/115 124/151/137 125/137/125
f 122/147/133 121/145/131 136/152/138 137/153/139
f 115/148/134 114/146/132 129/154/140 130/155/141
f 123/149/135 122/147/133 137/153/139 138/156/142
f 116/150/136 115/148/134 130/155/141 131/157/143
f 124/151/137 123/149/135 138/156/142 139/158/144
f 117/135/123 116/150/136 131/157/143 132/159/145
f 125/137/125 124/151/137 139/158/144 140/160/146
f 118/136/124 117/135/123 132/159/145 133/161/147
f 126/138/126 125/137/125 140/160/146 141/162/148
f 119/139/127 118/136/124 133/161/147 134/163/149
f 127/140/128 126/138/126 141/162/148 142/164/150
f 120/141/129 119/139/127 134/163/149 135/165/151
f 113/143/130 82/166/18 128/167/152
f 308/168/20 127/140/128 142/164/150
f 121/145/131 120/141/129 135/165/151 136/152/138
f 114/146/132 113/143/130 128/167/152 129/154/140
f 141/162/148 140/160/146 155/169/153 156/170/154
f 134/163/149 133/161/147 148/171/155 149/172/156
f 142/164/150 141/162/148 156/170/154 157/173/157
f 135/165/151 134/163/149 149/172/156 150/174/158
f 128/167/152 82/175/18 143/176/159
f 308/177/20 142/164/150 157/173/157
f 136/152/138 135/165/151 150/174/158 151/178/160
f 129/154/140 128/167/152 143/176/159 144/179/161
f 137/153/139 136/152/138 151/178/160 152/180/162
f 130/155/141 129/154/140 144/179/161 145/181/163
f 138/156/142 137/153/139 152/180/162 153/182/164
f 131/157/143 130/155/141 145/181/163 146/183/165
f 139/158/144 138/156/142 153/182/164 154/184/166
f 132/159/145 131/157/143 146/183/165 147/185/167
f 140/160/146 139/158/144 154/184/166 155/169/153
f 133/161/147 132/159/145 147/185/167 148/171/155
f 153/182/164 152/180/162 167/186/168 168/187/169
f 146/183/165 145/181/163 160/188/170 161/189/171
f 154/184/166 153/182/164 168/187/169 169/190/172
f 147/185/167 146/183/165 161/189/171 162/191/173
f 155/169/153 154/184/166 169/190/172 170/192/174
f 148/171/155 147/185/167 162/191/173 163/193/175
f 156/170/154 155/169/153 170/192/174 171/194/176
f 149/172/156 148/171/155 163/193/175 164/195/177
f 157/173/157 156/170/154 171/194/176 172/196/178
f 150/174/158 149/172/156 164/195/177 165/197/179
f 143/176/159 82/198/18 158/199/180
f 308/200/20 157/173/157 172/196/178
f 151/178/160 150/174/158 165/197/179 166/201/181
f 144/179/161 143/176/159 158/199/180 159/202/182
f 152/180/162 151/178/160 166/201/181 167/186/168
f 145/181/163 144/179/161 159/202/182 160/188/170
f 172/196/178 171/194/176 186/203/183 187/204/184
f 165/197/179 164/195/177 179/205/185 180/206/186
f 158/199/180 82/207/18 173/208/187
f 308/209/20 172/196/178 187/204/184
f 166/201/181 165/197/179 180/206/186 181/210/188
f 159/202/182 158/199/180 173/208/187 174/211/189
f 167/186/168 166/201/181 181/210/188 182/212/190
f 160/188/170 159/202/182 174/211/189 175/213/191
f 168/187/169 167/186/168 182/212/190 183/214/192
f 161/189/171 160/188/170 175/213/191 176/215/193
f 169/190/172 168/187/169 183/214/192 184/216/194
f 162/191/173 161/189/171 176/215/193 177/217/195
f 170/192/174 169/190/172 184/216/194 185/218/196
f 163/193/175 162/191/173 177/217/195 178/219/197
f 171/194/176 170/192/174 185/218/196 186/203/183
f 164/195/177 163/193/175 178/219/197 179/205/185
f 176/215/193 175/213/191 190/220/198 191/221/199
f 184/216/194 183/214/192 198/222/200 199/223/201
f 177/217/195 176/215/193 191/221/199 192/224/202
f 185/218/196 184/216/194 199/223/201 200/225/203
f 178/219/197 177/217/195 192/224/202 193/226/204
f 186/203/183 185/218/196 200/225/203 201/227/205
f 179/205/185 178/219/197 193/226/204 194/228/206
f 187/204/184 186/203/183 201/227/205 202/229/207
f 180/206/186 179/205/185 194/228/206 195/230/208
f 173/208/187 82/231/18 188/232/209
f 308/233/20 187/204/184 202/229/207
f 181/210/188 180/206/186 195/230/208 196/234/210
f 174/211/189 173/208/187 188/232/209 189/235/211
f 182/212/190 181/210/188 196/234/210 197/236/212
f 175/213/191 174/211/189 189/235/211 190/220/198
f 183/214/192 182/212/190 197/236/212 198/222/200
f 195/230/208 194/228/206 209/237/213 210/238/214
f 188/232/209 82/239/18 203/240/215
f 308/241/20 202/229/207 217/242/216
f 196/234/210 195/230/208 210/238/214 211/243/217
f 189/235/211 188/232/209 203/240/215 204/244/218
f 197/236/212 196/234/210 211/243/217 212/245/219
f 190/220/198 189/235/211 204/244/218 205/246/220
f 198/222/200 197/236/212 212/245/219 213/247/221
f 191/221/199 190/220/198 205/246/220 206/248/222
f 199/223/201 198/222/200 213/247/221 214/249/223
f 192/224/202 191/221/199 206/248/222 207/250/224
f 200/225/203 199/223/201 214/249/223 215/251/225
f 193/226/204 192/224/202 207/250/224 208/252/226
f 201/227/205 200/225/203 215/251/225 216/253/227
f 194/228/206 193/226/204 208/252/226 209/237/213
f 202/229/207 201/227/205 216/253/227 217/242/216
f 214/249/223 213/247/221 228/254/228 229/255/229
f 207/250/224 206/248/222 221/256/230 222/257/231
f 215/251/225 214/249/223 229/255/229 230/258/232
f 208/252/226 207/250/224 222/257/231 223/259/233
f 216/253/227 215/251/225 230/258/232 231/260/234
f 209/237/213 208/252/226 223/259/233 224/261/235
f 217/242/216 216/253/227 231/260/234 232/262/236
f 210/238/214 209/237/213 224/261/235 225/263/237
f 203/240/215 82/264/18 218/265/238
f 308/266/20 217/242/216 232/262/236
f 211/243/217 210/238/214 225/263/237 226/267/239
f 204/244/218 203/240/215 218/265/238 219/268/240
f 212/245/219 211/243/217 226/267/239 227/269/241
f 205/246/220 204/244/218 219/268/240 220/270/242
f 213/247/221 212/245/219 227/269/241 228/254/228
f 206/248/222 205/246/220 220/270/242 221/256/230
f 218/265/238 82/271/18 233/272/243
f 308/273/20 232/262/236 247/274/244
f 226/267/239 225/263/237 240/275/245 241/276/246
f 219/268/240 218/265/238 233/272/243 234/277/247
f 227/269/241 226/267/239 241/276/246 242/278/248
f 220/270/242 219/268/240 234/277/247 235/279/249
f 228/254/228 227/269/241 242/278/248 243/280/250
f 221/256/230 220/270/242 235/279/249 236/281/251
f 229/255/229 228/254/228 243/280/250 244/282/252
f 222/257/231 221/256/230 236/281/251 237/283/253
f 230/258/232 229/255/229 244/282/252 245/284/254
f 223/259/233 222/257/231 237/283/253 238/285/255
f 231/260/234 230/258/232 245/284/254 246/286/256
f 224/261/235 223/259/233 238/285/255 239/287/257
f 232/262/236 231/260/234 246/286/256 247/274/244
f 225/263/237 224/261/235 239/287/257 240/275/245
f 237/283/253 236/281/251 251/288/258 252/289/259
f 245/284/254 244/282/252 259/290/260 260/291/261
f 238/285/255 237/283/253 252/289/259 253/292/262
f 246/286/256 245/284/254 260/291/261 261/293/263
f 239/287/257 238/285/255 253/292/262 254/294/264
f 247/274/244 246/286/256 261/293/263 262/295/265
f 240/275/245 239/287/257 254/294/264 255/296/266
f 233/272/243 82/297/18 248/298/267
f 308/299/20 247/274/244 262/295/265
f 241/276/246 240/275/245 255/296/266 256/300/268
f 234/277/247 233/272/243 248/298/267 249/301/269
f 242/278/248 241/276/246 256/300/268 257/302/270
f 235/279/249 234/277/247 249/301/269 250/303/271
f 243/280/250 242/278/248 257/302/270 258/304/272
f 236/281/251 235/279/249 250/303/271 251/288/258
f 244/282/252 243/280/250 258/304/272 259/290/260
f 256/300/268 255/296/266 270/305/273 271/306/274
f 249/301/269 248/298/267 263/307/275 264/308/276
f 257/302/270 256/300/268 271/306/274 272/309/277
f 250/303/271 249/301/269 264/308/276 265/310/278
f 258/304/272 257/302/270 272/309/277 273/311/279
f 251/288/258 250/303/271 265/310/278 266/312/280
f 259/290/260 258/304/272 273/311/279 274/313/281
f 252/289/259 251/288/258 266/312/280 267/314/282
f 260/291/261 259/290/260 274/313/281 275/315/283
f 253/292/262 252/289/259 267/314/282 268/316/284
f 261/293/263 260/291/261 275/315/283 276/317/285
f 254/294/264 253/292/262 268/316/284 269/318/286
f 262/295/265 261/293/263 276/317/285 277/319/287
f 255/296/266 254/294/264 269/318/286 270/305/273
f 248/298/267 82/320/18 263/307/275
f 308/321/20 262/295/265 277/319/287
f 275/315/283 274/313/281 289/322/288 290/323/289
f 268/316/284 267/314/282 282/324/290 283/325/291
f 276/317/285 275/315/283 290/323/289 291/326/292
f 269/318/286 268/316/284 283/325/291 284/327/293
f 277/319/287 276/317/285 291/326/292 292/328/294
f 270/305/273 269/318/286 284/327/293 285/329/295
f 263/307/275 82/330/18 278/331/296
f 308/332/20 277/319/287 292/328/294
f 271/306/274 270/305/273 285/329/295 286/333/297
f 264/308/276 263/307/275 278/331/296 279/334/298
f 272/309/277 271/306/274 286/333/297 287/335/299
f 265/310/278 264/308/276 279/334/298 280/336/300
f 273/311/279 272/309/277 287/335/299 288/337/301
f 266/312/280 265/310/278 280/336/300 281/338/302
f 274/313/281 273/311/279 288/337/301 289/322/288
f 267/314/282 266/312/280 281/338/302 282/324/290
f 287/335/299 286/333/297 301/339/303 302/340/304
f 280/336/300 279/334/298 294/341/305 295/342/306
f 288/337/301 287/335/299 302/340/304 303/343/307
f 281/338/302 280/336/300 295/342/306 296/344/308
f 289/322/288 288/337/301 303/343/307 304/345/309
f 282/324/290 281/338/302 296/344/308 297/346/310
f 290/323/289 289/322/288 304/345/309 305/347/311
f 283/325/291 282/324/290 297/346/310 298/348/312
f 291/326/292 290/323/289 305/347/311 306/349/313
f 284/327/293 283/325/291 298/348/312 299/350/314
f 292/328/294 291/326/292 306/349/313 307/351/315
f 285/329/295 284/327/293 299/350/314 300/352/316
f 278/331/296 82/353/18 293/354/317
f 308/355/20 292/328/294 307/351/315
f 286/333/297 285/329/295 300/352/316 301/339/303
f 279/334/298 278/331/296 293/354/317 294/341/305
f 306/349/313 305/347/311 321/356/318 322/357/319
f 299/350/314 298/348/312 314/358/320 315/359/321
f 307/351/315 306/349/313 322/357/319 323/360/322
f 300/352/316 299/350/314 315/359/321 316/361/323
f 293/354/317 82/362/18 309/363/324
f 308/364/20 307/351/315 323/360/322
f 301/339/303 300/352/316 316/361/323 317/365/325
f 294/341/305 293/354/317 309/363/324 310/366/326
f 302/340/304 301/339/303 317/365/325 318/367/327
f 295/342/306 294/341/305 310/366/326 311/368/328
f 303/343/307 302/340/304 318/367/327 319/369/329
f 296/344/308 295/342/306 311/368/328 312/370/330
f 304/345/309 303/343/307 319/369/329 320/371/331
f 297/346/310 296/344/308 312/370/330 313/372/332
f 305/347/311 304/345/309 320/371/331 321/356/318
f 298/348/312 297/346/310 313/372/332 314/358/320
f 311/368/328 310/366/326 325/373/333 326/374/334
f 319/369/329 318/367/327 333/375/335 334/376/336
f 312/370/330 311/368/328 326/374/334 327/377/337
f 320/371/331 319/369/329 334/376/336 335/378/338
f 313/372/332 312/370/330 327/377/337 328/379/339
f 321/356/318 320/371/331 335/378/338 336/380/340
f 314/358/320 313/372/332 328/379/339 329/381/341
f 322/357/319 321/356/318 336/380/340 337/382/342
f 315/359/321 314/358/320 329/381/341 330/383/343
f 323/360/322 322/357/319 337/382/342 338/384/344
f 316/361/323 315/359/321 330/383/343 331/385/345
f 309/363/324 82/386/18 324/387/346
f 308/388/20 323/360/322 338/384/344
f 317/365/325 316/361/323 331/385/345 332/389/347
f 310/366/326 309/363/324 324/387/346 325/373/333
f 318/367/327 317/365/325 332/389/347 333/375/335
f 330/383/343 329/381/341 344/390/348 345/391/349
f 338/384/344 337/382/342 352/392/350 353/393/351
f 331/385/345 330/383/343 345/391/349 346/394/352
f 324/387/346 82/395/18 339/396/353
f 308/397/20 338/384/344 353/393/351
f 332/389/347 331/385/345 346/394/352 347/398/354
f 325/373/333 324/387/346 339/396/353 340/399/355
f 333/375/335 332/389/347 347/398/354 348/400/356
f 326/374/334 325/373/333 340/399/355 341/401/357
f 334/376/336 333/375/335 348/400/356 349/402/358
f 327/377/337 326/374/334 341/401/357 342/403/359
f 335/378/338 334/376/336 349/402/358 350/404/360
f 328/379/339 327/377/337 342/403/359 343/405/361
f 336/380/340 335/378/338 350/404/360 351/406/362
f 329/381/341 328/379/339 343/405/361 344/390/348
f 337/382/342 336/380/340 351/406/362 352/392/350
f 349/402/358 348/400/356 363/407/363 364/408/364
f 342/403/359 341/401/357 356/409/365 357/410/366
f 350/404/360 349/402/358 364/408/364 365/411/367
f 343/405/361 342/403/359 357/410/366 358/412/368
f 351/406/362 350/404/360 365/411/367 366/413/369
f 344/390/348 343/405/361 358/412/368 359/414/370
f 352/392/350 351/406/362 366/413/369 367/415/371
f 345/391/349 344/390/348 359/414/370 360/416/372
f 353/393/351 352/392/350 367/415/371 368/417/373
f 346/394/352 345/391/349 360/416/372 361/418/374
f 339/396/353 82/419/18 354/420/375
f 308/421/20 353/393/351 368/417/373
f 347/398/354 346/394/352 361/418/374 362/422/376
f 340/399/355 339/396/353 354/420/375 355/423/377
f 348/400/356 347/398/354 362/422/376 363/407/363
f 341/401/357 340/399/355 355/423/377 356/409/365
f 368/424/373 367/425/371 382/426/378 383/427/379
f 361/428/374 360/429/372 375/430/380 376/431/381
f 354/432/375 82/433/18 369/434/382
f 308/435/20 368/424/373 383/427/379
f 362/436/376 361/428/374 376/431/381 377/437/383
f 355/438/377 354/432/375 369/434/382 370/439/384
f 363/440/363 362/436/376 377/437/383 378/441/385
f 356/442/365 355/438/377 370/439/384 371/443/386
f 364/444/364 363/440/363 378/441/385 379/445/387
f 357/446/366 356/442/365 371/443/386 372/447/388
f 365/448/367 364/444/364 379/445/387 380/449/389
f 358/450/368 357/446/366 372/447/388 373/451/390
f 366/452/369 365/448/367 380/449/389 381/453/391
f 359/454/370 358/450/368 373/451/390 374/455/392
f 367/425/371 366/452/369 381/453/391 382/426/378
f 360/429/372 359/454/370 374/455/392 375/430/380
f 372/447/388 371/443/386 386/456/393 387/457/394
f 380/449/389 379/445/387 394/458/395 395/459/396
f 373/451/390 372/447/388 387/457/394 388/460/397
f 381/453/391 380/449/389 395/459/396 396/461/398
f 374/455/392 373/451/390 388/460/397 389/462/399
f 382/426/378 381/453/391 396/461/398 397/463/400
f 375/430/380 374/455/392 389/462/399 390/464/401
f 383/427/379 382/426/378 397/463/400 398/465/402
f 376/431/381 375/430/380 390/464/401 391/466/403
f 369/434/382 82/467/18 384/468/404
f 308/469/20 383/427/379 398/465/402
f 377/437/383 376/431/381 391/466/403 392/470/405
f 370/439/384 369/434/382 384/468/404 385/471/406
f 378/441/385 377/437/383 392/470/405 393/472/407
f 371/443/386 370/439/384 385/471/406 386/456/393
f 379/445/387 378/441/385 393/472/407 394/458/395
f 391/466/403 390/464/401 405/473/408 406/474/409
f 384/468/404 82/475/18 399/476/410
f 308/477/20 398/465/402 413/478/411
f 392/470/405 391/466/403 406/474/409 407/479/412
f 385/471/406 384/468/404 399/476/410 400/480/413
f 393/472/407 392/470/405 407/479/412 408/481/414
f 386/456/393 385/471/406 400/480/413 401/482/415
f 394/458/395 393/472/407 408/481/414 409/483/416
f 387/457/394 386/456/393 401/482/415 402/484/417
f 395/459/396 394/458/395 409/483/416 410/485/418
f 388/460/397 387/457/394 402/484/417 403/486/419
f 396/461/398 395/459/396 410/485/418 411/487/420
f 389/462/399 388/460/397 403/486/419 404/488/421
f 397/463/400 396/461/398 411/487/420 412/489/422
f 390/464/401 389/462/399 404/488/421 405/473/408
f 398/465/402 397/463/400 412/489/422 413/478/411
f 410/485/418 409/483/416 424/490/423 425/491/424
f 403/486/419 402/484/417 417/492/425 418/493/426
f 411/487/420 410/485/418 425/491/424 426/494/427
f 404/488/421 403/486/419 418/493/426 419/495/428
f 412/489/422 411/487/420 426/494/427 427/496/429
f 405/473/408 404/488/421 419/495/428 420/497/430
f 413/478/411 412/489/422 427/496/429 428/498/431
f 406/474/409 405/473/408 420/497/430 421/499/432
f 399/476/410 82/500/18 414/501/433
f 308/502/20 413/478/411 428/498/431
f 407/479/412 406/474/409 421/499/432 422/503/434
f 400/480/413 399/476/410 414/501/433 415/504/435
f 408/481/414 407/479/412 422/503/434 423/505/436
f 401/482/415 400/480/413 415/504/435 416/506/437
f 409/483/416 408/481/414 423/505/436 424/490/423
f 402/484/417 401/482/415 416/506/437 417/492/425
f 308/507/20 428/498/431 443/508/438
f 422/503/434 421/499/432 436/509/439 437/510/440
f 415/504/435 414/501/433 429/511/441 430/512/442
f 423/505/436 422/503/434 437/510/440 438/513/443
f 416/506/437 415/504/435 430/512/442 431/514/444
f 424/490/423 423/505/436 438/513/443 439/515/445
f 417/492/425 416/506/437 431/514/444 432/516/446
f 425/491/424 424/490/423 439/515/445 440/517/447
f 418/493/426 417/492/425 432/516/446 433/518/448
f 426/494/427 425/491/424 440/517/447 441/519/449
f 419/495/428 418/493/426 433/518/448 434/520/450
f 427/496/429 426/494/427 441/519/449 442/521/451
f 420/497/430 419/495/428 434/520/450 435/522/452
f 428/498/431 427/496/429 442/521/451 443/508/438
f 421/499/432 420/497/430 435/522/452 436/509/439
f 414/501/433 82/523/18 429/511/441
f 441/519/449 440/517/447 455/524/453 456/525/454
f 434/520/450 433/518/448 448/526/455 449/527/456
f 442/521/451 441/519/449 456/525/454 457/528/457
f 435/522/452 434/520/450 449/527/456 450/529/458
f 443/508/438 442/521/451 457/528/457 458/530/459
f 436/509/439 435/522/452 450/529/458 451/531/460
f 429/511/441 82/532/18 444/533/461
f 308/534/20 443/508/438 458/530/459
f 437/510/440 436/509/439 451/531/460 452/535/462
f 430/512/442 429/511/441 444/533/461 445/536/463
f 438/513/443 437/510/440 452/535/462 453/537/464
f 431/514/444 430/512/442 445/536/463 446/538/465
f 439/515/445 438/513/443 453/537/464 454/539/466
f 432/516/446 431/514/444 446/538/465 447/540/467
f 440/517/447 439/515/445 454/539/466 455/524/453
f 433/518/448 432/516/446 447/540/467 448/526/455
f 445/536/463 444/533/461 459/541/468 460/542/469
f 453/537/464 452/535/462 467/543/470 468/544/471
f 446/538/465 445/536/463 460/542/469 461/545/472
f 454/539/466 453/537/464 468/544/471 469/546/473
f 447/540/467 446/538/465 461/545/472 462/547/474
f 455/524/453 454/539/466 469/546/473 470/548/475
f 448/526/455 447/540/467 462/547/474 463/549/476
f 456/525/454 455/524/453 470/548/475 471/550/477
f 449/527/456 448/526/455 463/549/476 464/551/478
f 457/528/457 456/525/454 471/550/477 472/552/479
f 450/529/458 449/527/456 464/551/478 465/553/480
f 458/530/459 457/528/457 472/552/479 473/554/481
f 451/531/460 450/529/458 465/553/480 466/555/482
f 444/533/461 82/556/18 459/541/468
f 308/557/20 458/530/459 473/554/481
f 452/535/462 451/531/460 466/555/482 467/543/470
f 464/551/478 463/549/476 2/6/6 477/5/5
f 472/552/479 471/550/477 480/1/1 481/9/9
f 465/553/480 464/551/478 477/5/5 3/11/11
f 473/554/481 472/552/479 481/9/9 482/13/13
f 466/555/482 465/553/480 3/11/11 4/15/15
f 459/541/468 82/558/18 474/17/17
f 308/559/20 473/554/481 482/13/13
f 467/543/470 466/555/482 4/15/15 5/21/21
f 460/542/469 459/541/468 474/17/17 475/23/23
f 468/544/471 467/543/470 5/21/21 478/25/25
f 461/545/472 460/542/469 475/23/23 1/27/27
f 469/546/473 468/544/471 478/25/25 6/29/29
f 462/547/474 461/545/472 1/27/27 476/31/31
f 470/548/475 469/546/473 6/29/29 479/2/2
f 463/549/476 462/547/474 476/31/31 2/6/6
f 471/550/477 470/548/475 479/2/2 480/1/1
